<?xml version="1.0" encoding="UTF-8" standalone="no"?>
<!DOCTYPE svg PUBLIC "-//W3C//DTD SVG 1.1//EN"
 "http://www.w3.org/Graphics/SVG/1.1/DTD/svg11.dtd">
<!-- Generated by graphviz version 14.1.2 (0)
 -->
<!-- Title: interpreter_path Pages: 1 -->
<svg width="696pt" height="72pt"
 viewBox="0.00 0.00 696.00 72.00" xmlns="http://www.w3.org/2000/svg" xmlns:xlink="http://www.w3.org/1999/xlink">
<g id="graph0" class="graph" transform="scale(1 1) rotate(0) translate(5.76 66.72)">
<title>interpreter_path</title>
<!-- source -->
<g id="node1" class="node">
<title>source</title>
<path fill="#eaf3f7" stroke="#9fb5c3" stroke-width="1.3" d="M113.16,-60.96C113.16,-60.96 12,-60.96 12,-60.96 6,-60.96 0,-54.96 0,-48.96 0,-48.96 0,-12 0,-12 0,-6 6,0 12,0 12,0 113.16,0 113.16,0 119.16,0 125.16,-6 125.16,-12 125.16,-12 125.16,-48.96 125.16,-48.96 125.16,-54.96 119.16,-60.96 113.16,-60.96"/>
<text xml:space="preserve" text-anchor="middle" x="62.58" y="-39.28" font-family="PingFang SC" font-size="16.00">Python 源代码</text>
<text xml:space="preserve" text-anchor="middle" x="62.58" y="-15.28" font-family="PingFang SC" font-size="16.00">程序描述</text>
</g>
<!-- interpreter -->
<g id="node2" class="node">
<title>interpreter</title>
<path fill="#fff2e9" stroke="#e97132" stroke-width="1.3" d="M321.07,-60.96C321.07,-60.96 183.16,-60.96 183.16,-60.96 177.16,-60.96 171.16,-54.96 171.16,-48.96 171.16,-48.96 171.16,-12 171.16,-12 171.16,-6 177.16,0 183.16,0 183.16,0 321.07,0 321.07,0 327.07,0 333.07,-6 333.07,-12 333.07,-12 333.07,-48.96 333.07,-48.96 333.07,-54.96 327.07,-60.96 321.07,-60.96"/>
<text xml:space="preserve" text-anchor="middle" x="252.12" y="-39.28" font-family="PingFang SC" font-size="16.00">解释器</text>
<text xml:space="preserve" text-anchor="middle" x="252.12" y="-15.28" font-family="PingFang SC" font-size="16.00">已编译的可执行文件</text>
</g>
<!-- source&#45;&gt;interpreter -->
<g id="edge1" class="edge">
<title>source&#45;&gt;interpreter</title>
<path fill="none" stroke="#156082" stroke-width="1.7" d="M125.77,-30.48C137.35,-30.48 149.66,-30.48 161.87,-30.48"/>
<polygon fill="#156082" stroke="#156082" stroke-width="1.7" points="161.65,-32.76 168.15,-30.48 161.65,-28.21 161.65,-32.76"/>
<text xml:space="preserve" text-anchor="middle" x="148.16" y="-37.08" font-family="PingFang SC" font-size="12.00"> 读取 </text>
</g>
<!-- runtime -->
<g id="node3" class="node">
<title>runtime</title>
<path fill="#f3f5f6" stroke="#9fb5c3" stroke-width="1.3" d="M490.91,-60.96C490.91,-60.96 391.07,-60.96 391.07,-60.96 385.07,-60.96 379.07,-54.96 379.07,-48.96 379.07,-48.96 379.07,-12 379.07,-12 379.07,-6 385.07,0 391.07,0 391.07,0 490.91,0 490.91,0 496.91,0 502.91,-6 502.91,-12 502.91,-12 502.91,-48.96 502.91,-48.96 502.91,-54.96 496.91,-60.96 490.91,-60.96"/>
<text xml:space="preserve" text-anchor="middle" x="440.99" y="-39.28" font-family="PingFang SC" font-size="16.00">运行时与</text>
<text xml:space="preserve" text-anchor="middle" x="440.99" y="-15.28" font-family="PingFang SC" font-size="16.00">原生库</text>
</g>
<!-- interpreter&#45;&gt;runtime -->
<g id="edge2" class="edge">
<title>interpreter&#45;&gt;runtime</title>
<path fill="none" stroke="#156082" stroke-width="1.7" d="M333.45,-30.48C345.51,-30.48 357.87,-30.48 369.7,-30.48"/>
<polygon fill="#156082" stroke="#156082" stroke-width="1.7" points="369.56,-32.76 376.06,-30.48 369.56,-28.21 369.56,-32.76"/>
<text xml:space="preserve" text-anchor="middle" x="356.07" y="-37.08" font-family="PingFang SC" font-size="12.00"> 调用 </text>
</g>
<!-- cpu -->
<g id="node4" class="node">
<title>cpu</title>
<path fill="#fce9df" stroke="#9fb5c3" stroke-width="1.3" d="M672.75,-60.21C672.75,-60.21 572.91,-60.21 572.91,-60.21 566.91,-60.21 560.91,-54.21 560.91,-48.21 560.91,-48.21 560.91,-12.75 560.91,-12.75 560.91,-6.75 566.91,-0.75 572.91,-0.75 572.91,-0.75 672.75,-0.75 672.75,-0.75 678.75,-0.75 684.75,-6.75 684.75,-12.75 684.75,-12.75 684.75,-48.21 684.75,-48.21 684.75,-54.21 678.75,-60.21 672.75,-60.21"/>
<text xml:space="preserve" text-anchor="middle" x="622.83" y="-38.53" font-family="PingFang SC" font-size="16.00">CPU</text>
<text xml:space="preserve" text-anchor="middle" x="622.83" y="-16.03" font-family="PingFang SC" font-size="16.00">机器指令</text>
</g>
<!-- runtime&#45;&gt;cpu -->
<g id="edge3" class="edge">
<title>runtime&#45;&gt;cpu</title>
<path fill="none" stroke="#156082" stroke-width="1.7" d="M503.38,-30.48C518.92,-30.48 535.73,-30.48 551.66,-30.48"/>
<polygon fill="#156082" stroke="#156082" stroke-width="1.7" points="551.34,-32.76 557.84,-30.48 551.34,-28.21 551.34,-32.76"/>
<text xml:space="preserve" text-anchor="middle" x="531.91" y="-37.08" font-family="PingFang SC" font-size="12.00"> 执行于 </text>
</g>
</g>
</svg>
